<svg xmlns="http://www.w3.org/2000/svg" width="512" height="512" viewBox="0 0 512 512" version="1.1"><path d="M 129.250 237.689 C 130.213 237.941, 131.787 237.941, 132.750 237.689 C 133.713 237.438, 132.925 237.232, 131 237.232 C 129.075 237.232, 128.287 237.438, 129.250 237.689 M 378.762 237.707 C 380.006 237.946, 381.806 237.937, 382.762 237.687 C 383.718 237.437, 382.700 237.241, 380.500 237.252 C 378.300 237.263, 377.518 237.468, 378.762 237.707 M 367.458 289.500 C 367.459 313.150, 367.590 322.682, 367.749 310.682 C 367.909 298.683, 367.909 279.333, 367.749 267.682 C 367.589 256.032, 367.458 265.850, 367.458 289.500 M 393.457 289.500 C 393.456 312.050, 393.588 321.418, 393.749 310.317 C 393.909 299.216, 393.910 280.766, 393.749 269.317 C 393.589 257.868, 393.457 266.950, 393.457 289.500 M 99.591 259.573 C 93.896 261.660, 89.422 265.425, 86.272 270.784 C 83.597 275.335, 83.500 275.993, 83.500 289.578 C 83.500 303.501, 83.534 303.711, 86.524 308.547 C 89.793 313.835, 95.570 318.460, 100.750 319.935 L 104 320.860 104 289.430 C 104 272.144, 103.888 258.032, 103.750 258.070 C 103.612 258.109, 101.741 258.785, 99.591 259.573 M 407 289.500 C 407 319.532, 407.031 320, 409.040 320 C 412.089 320, 418.086 316.607, 421.699 312.838 C 426.989 307.320, 428 303.573, 428 289.500 C 428 275.427, 426.989 271.680, 421.699 266.162 C 418.086 262.393, 412.089 259, 409.040 259 C 407.031 259, 407 259.468, 407 289.500 M 129.762 341.707 C 131.006 341.946, 132.806 341.937, 133.762 341.687 C 134.718 341.437, 133.700 341.241, 131.500 341.252 C 129.300 341.263, 128.518 341.468, 129.762 341.707 M 378.762 341.707 C 380.006 341.946, 381.806 341.937, 382.762 341.687 C 383.718 341.437, 382.700 341.241, 380.500 341.252 C 378.300 341.263, 377.518 341.468, 378.762 341.707 M 233.250 345.749 C 247.963 345.905, 272.038 345.905, 286.750 345.749 C 301.462 345.593, 289.425 345.466, 260 345.466 C 230.575 345.466, 218.537 345.593, 233.250 345.749 M 233.250 364.749 C 247.963 364.905, 272.038 364.905, 286.750 364.749 C 301.462 364.593, 289.425 364.466, 260 364.466 C 230.575 364.466, 218.537 364.593, 233.250 364.749 M 368.234 425.029 C 366.438 426.663, 365.341 428, 365.797 428 C 366.253 428, 367.919 426.650, 369.500 425 C 373.175 421.164, 372.466 421.180, 368.234 425.029 M 255.782 430.500 C 256.362 431.600, 258.545 434.075, 260.633 436 C 264.242 439.327, 264.213 439.252, 260.045 434.500 C 257.633 431.750, 255.450 429.275, 255.194 429 C 254.938 428.725, 255.203 429.400, 255.782 430.500" stroke="none" fill="#f26e53" fill-rule="evenodd"/><path d="M 249.917 70.366 C 249.688 70.568, 245.225 71.003, 240 71.333 C 222.736 72.423, 201.654 77.499, 185 84.574 C 177.841 87.615, 176.545 88.604, 175.654 91.709 C 174.851 94.511, 175.078 95.175, 177.623 97.455 C 181.152 100.617, 182.297 100.477, 196 95.212 C 254.975 72.552, 325.649 86.247, 368.668 128.673 C 385.705 145.475, 396.533 164.322, 402.710 187.926 C 404.912 196.343, 405.265 200.097, 405.629 219 C 405.968 236.638, 405.814 240.150, 404.771 238.554 C 404.072 237.484, 401.649 234.559, 399.386 232.054 L 395.271 227.500 394.705 213 C 393.899 192.332, 389.440 176.916, 379.375 159.995 C 354.027 117.383, 297.599 90.851, 243.055 95.897 C 220.629 97.971, 204.990 102.347, 185.500 111.999 C 170.703 119.327, 158.957 128.068, 147.370 140.374 C 126.765 162.256, 117.043 186.199, 117.013 215.135 C 117 227.585, 116.962 227.795, 114.437 229.449 C 113.028 230.373, 110.553 233.213, 108.937 235.760 L 106 240.392 106 221.103 C 106 205.576, 106.401 199.846, 108.056 191.723 C 110.390 180.271, 115.038 167.540, 120.662 157.193 L 124.500 150.133 122.593 146.567 C 120.361 142.394, 116.798 141.798, 112.816 144.930 C 109.817 147.289, 102.142 162.655, 98.573 173.445 C 93.381 189.144, 92.743 193.966, 92.260 221.212 L 91.804 246.925 87.594 249.392 C 81.759 252.811, 75.320 260.085, 72.160 266.825 C 69.607 272.272, 69.500 273.182, 69.500 289.500 C 69.500 305.823, 69.606 306.726, 72.163 312.178 C 77.275 323.077, 86.524 330.784, 98.389 334.032 C 103.820 335.518, 104.582 336.046, 105.396 338.885 C 106.640 343.223, 113.350 350.625, 118.372 353.200 C 120.985 354.539, 125.120 355.487, 129.639 355.782 C 135.773 356.183, 137.561 355.890, 142.352 353.697 C 149.024 350.642, 153.510 346.289, 156.381 340.082 C 158.443 335.624, 158.500 334.256, 158.500 289.500 C 158.500 244.679, 158.446 243.385, 156.375 239 C 152.207 230.171, 144.703 224.693, 135.018 223.408 L 129.747 222.709 130.421 212.604 C 131.342 198.819, 133.456 189.291, 137.855 179.101 C 150.937 148.797, 177.844 126.264, 214.241 115.132 C 231.315 109.910, 257.547 107.946, 276.080 110.501 C 310.816 115.290, 341.680 132.437, 361.321 157.856 C 368.127 166.665, 375.266 181.050, 378.018 191.500 C 379.257 196.205, 380.366 204.339, 380.710 211.250 L 381.294 223 378.397 223.042 C 369.122 223.175, 358.327 230.838, 355.040 239.623 C 352.982 245.123, 352.933 246.521, 353.213 291.388 C 353.493 336.447, 353.549 337.591, 355.658 341.500 C 359.133 347.940, 369.311 355.862, 372.525 354.629 C 373.806 354.137, 374 358.274, 374 386.064 C 374 420.821, 373.747 422.694, 368.486 426.832 C 365.030 429.551, 357.138 429.785, 352.920 427.294 C 349.488 425.266, 346.623 419.763, 347.523 416.926 C 347.876 415.814, 347.625 414.253, 346.965 413.457 C 346.304 412.662, 346 411.108, 346.288 410.005 C 346.577 408.902, 346.459 408, 346.028 408 C 345.141 408, 342.396 401.905, 342.762 400.750 C 342.893 400.338, 342.662 400.101, 342.250 400.225 C 341.837 400.349, 340.150 399.162, 338.500 397.586 C 330.441 389.891, 316.983 388.142, 307.144 393.510 C 298.489 398.234, 293 406.855, 293 415.728 C 293 423.514, 287.456 429, 279.588 429 C 273.129 429, 266.297 424.666, 267.472 421.315 C 267.701 420.663, 267.575 419.988, 267.194 419.815 C 266.812 419.642, 266.646 410.387, 266.825 399.250 L 267.150 379 294.901 379 C 322.615 379, 322.654 378.997, 324.826 376.686 C 326.990 374.382, 327 374.171, 327 330.341 C 327 289.654, 326.867 286.194, 325.250 284.785 C 324.288 283.947, 322.825 283.039, 322 282.768 C 319.987 282.106, 315.307 284.559, 314.030 286.945 C 313.415 288.094, 313 297.556, 313 310.434 L 313 332 269 332 L 225 332 225 296.223 C 225 256.152, 224.975 256, 218.500 256 C 212.027 256, 212 256.165, 212 296.095 L 212 331.746 207.250 332.252 C 204.637 332.530, 201.713 333.085, 200.750 333.486 C 199.095 334.174, 199 331.102, 199 277.030 L 199 219.846 201.923 216.923 C 204.064 214.782, 205.803 214, 208.423 214 L 212 214 212 221.927 C 212 229.300, 212.184 230, 214.635 231.927 C 218.049 234.613, 219.551 234.540, 222.545 231.545 C 224.718 229.373, 225 228.223, 225 221.545 L 225 214 269 214 L 313 214 313 231.444 C 313 248.135, 313.097 248.995, 315.250 251.363 C 318.723 255.184, 321.529 255.562, 324.483 252.608 L 327 250.091 327 227.220 C 327 204.516, 326.983 204.333, 324.653 202.144 L 322.307 199.940 261.903 200.220 L 201.500 200.500 197.500 202.912 C 192.966 205.647, 189.574 209.119, 187.156 213.500 C 185.666 216.200, 185.472 223.662, 185.225 288.108 C 184.957 357.687, 185.006 359.847, 186.938 364.356 C 189.128 369.463, 193.294 374.015, 198.267 376.733 C 201.121 378.293, 204.520 378.500, 227.249 378.500 L 252.997 378.500 253.075 400 C 253.158 423.184, 253.471 425, 258.639 432.306 C 264.730 440.917, 279.216 444.861, 289.291 440.652 C 293.932 438.713, 301.434 431.781, 303.010 427.975 C 303.688 426.339, 304.624 425, 305.090 425 C 305.556 425, 305.676 424.319, 305.357 423.487 C 305.037 422.655, 305.314 421.327, 305.971 420.535 C 306.628 419.744, 306.870 418.167, 306.510 417.032 C 305.516 413.901, 307.800 408.279, 310.987 406.009 C 315.134 403.056, 321.707 402.480, 325.980 404.696 C 330.588 407.085, 334 412.329, 334 417.022 C 334 430.801, 346.005 442.271, 360.341 442.188 C 367.986 442.144, 372.387 440.452, 377.962 435.415 C 382.147 431.635, 386.599 424.537, 386.173 422.325 C 386.049 421.679, 386.409 420.865, 386.973 420.516 C 387.641 420.104, 388 408.573, 388 387.519 L 388 355.155 391.666 353.945 C 396.387 352.387, 403.387 345.171, 405.472 339.714 C 406.968 335.794, 407.507 335.353, 412.131 334.254 C 427.269 330.659, 438.716 319.093, 441.876 304.201 C 443.406 296.987, 443.273 279.612, 441.641 273.500 C 440.906 270.750, 439.289 266.512, 438.046 264.082 C 435.382 258.870, 427.443 250.840, 423.228 249.095 L 420.255 247.863 419.692 222.681 C 419.325 206.290, 418.607 195.007, 417.635 190.359 C 413.834 172.183, 404.171 150.626, 393.365 136.217 C 365.148 98.592, 321.051 75.386, 269.500 71.034 C 256.887 69.969, 250.612 69.755, 249.917 70.366 M 139.898 112.711 C 133.486 118.504, 132.611 123.590, 137.632 125.878 C 141.592 127.682, 144.262 127.129, 148.097 123.708 C 153.236 119.126, 154.296 116.768, 152.775 113.307 C 151.221 109.773, 150.185 109.034, 146.753 109.015 C 144.974 109.005, 142.558 110.308, 139.898 112.711 M 123.763 238.565 C 118.020 241.681, 118 241.861, 118 289.986 C 118 329.253, 118.180 334.345, 119.648 336.586 C 124.979 344.721, 139.833 343.431, 143.560 334.510 C 145.683 329.428, 145.683 249.572, 143.560 244.490 C 140.799 237.881, 130.631 234.839, 123.763 238.565 M 372.873 238.625 C 366.914 242.456, 366.997 241.735, 367.035 289.654 C 367.063 323.392, 367.366 334.033, 368.353 335.810 C 370.429 339.552, 375.028 341.988, 380 341.979 C 385.685 341.968, 388.826 340.381, 391.750 336.044 L 394.059 332.617 393.780 288.327 L 393.500 244.037 390.298 240.836 C 387.565 238.103, 386.247 237.583, 381.298 237.285 C 377.091 237.032, 374.779 237.399, 372.873 238.625 M 251 242 C 248.182 244.818, 248.469 248.437, 251.712 250.988 C 254.287 253.014, 255.320 253.106, 272.179 252.811 C 287.115 252.549, 290.197 252.236, 291.592 250.839 C 293.763 248.665, 293.705 244.436, 291.470 241.967 C 289.823 240.147, 288.317 240, 271.345 240 C 254.333 240, 252.855 240.145, 251 242 M 96.105 260.635 C 90.364 263.496, 85.689 268.970, 83.907 274.915 C 83.290 276.974, 82.974 284.086, 83.166 291.587 C 83.486 304.126, 83.625 304.870, 86.526 309.557 C 89.767 314.793, 96.285 319.524, 101.750 320.606 L 105 321.250 105 289.625 C 105 253.574, 105.699 255.854, 96.105 260.635 M 407 289.392 C 407 324.292, 406.611 322.443, 413.355 319.625 C 418.049 317.664, 423.758 312.362, 426.309 307.595 C 428.264 303.940, 428.500 301.994, 428.500 289.500 C 428.500 277.006, 428.264 275.060, 426.309 271.405 C 422.787 264.823, 416.876 260.262, 409.456 258.400 L 407 257.783 407 289.392 M 201.923 347.923 C 199.631 350.216, 199 351.742, 199 355 C 199 358.258, 199.631 359.784, 201.923 362.077 L 204.846 365 258.923 365 L 313 365 313 355 L 313 345 258.923 345 L 204.846 345 201.923 347.923" stroke="none" fill="#250a66" fill-rule="evenodd"/><path d="M 123.881 239.503 C 118.014 242.692, 117.891 243.802, 118.209 290.736 C 118.474 329.655, 118.659 333.733, 120.264 336.096 C 121.234 337.524, 123.168 339.211, 124.561 339.846 C 128.201 341.504, 136.160 341.277, 138.783 339.439 C 143.945 335.824, 144 335.294, 144 289.500 C 144 243.706, 143.945 243.176, 138.783 239.561 C 135.990 237.604, 127.436 237.571, 123.881 239.503 M 371.400 241.400 L 368 244.800 368 289.500 L 368 334.200 371.400 337.600 C 374.455 340.655, 375.367 341, 380.384 341 C 385.141 341, 386.452 340.568, 389.234 338.083 L 392.500 335.165 392.780 290.012 L 393.060 244.860 389.630 241.430 C 386.526 238.326, 385.659 238, 380.500 238 C 375.351 238, 374.471 238.329, 371.400 241.400 M 203.656 347.133 C 202.642 347.722, 201.174 349.733, 200.393 351.602 C 199.165 354.540, 199.167 355.463, 200.402 358.420 C 201.188 360.300, 202.739 362.325, 203.850 362.920 C 205.224 363.655, 222.976 364, 259.434 364 L 313 364 313 355 L 313 346 259.250 346.030 C 222.886 346.051, 204.904 346.407, 203.656 347.133" stroke="none" fill="#f5c464" fill-rule="evenodd"/><path d="M 231.189 86.514 C 218.932 88.376, 204.719 92.212, 193.614 96.654 C 183.247 100.802, 180.608 101.052, 177.715 98.159 L 175.625 96.069 172.062 98.173 C 170.103 99.331, 165.016 102.520, 160.758 105.260 L 153.015 110.242 153.646 114.187 C 154.223 117.795, 153.945 118.476, 150.388 122.160 C 145.399 127.328, 142.544 128.468, 138.639 126.851 C 135.729 125.645, 135.513 125.760, 130.841 130.976 C 128.198 133.927, 124.853 138.047, 123.408 140.132 C 120.993 143.617, 120.911 144.054, 122.390 145.533 C 124.976 148.119, 124.293 151.825, 119.533 161.042 C 109.751 179.980, 105.981 197.316, 106.058 223 C 106.103 237.817, 106.178 238.390, 107.775 236 C 108.693 234.625, 110.850 232.133, 112.567 230.463 L 115.690 227.426 116.272 212.963 C 116.701 202.272, 117.506 195.969, 119.358 188.794 C 130.895 144.087, 170.959 109.340, 224.251 97.822 C 238.279 94.791, 269.432 94.555, 284.500 97.365 C 340.962 107.898, 384.279 146.703, 393.431 194.951 C 394.296 199.509, 395 208.474, 395 214.923 L 395 226.626 398.127 229.563 C 399.846 231.178, 402.122 233.850, 403.183 235.500 L 405.112 238.500 404.713 217 C 404.355 197.638, 404.050 194.506, 401.654 185.500 C 398.320 172.975, 390.054 155.964, 381.950 144.948 C 360.895 116.333, 327.048 95.720, 288.299 87.916 C 274.381 85.113, 245.136 84.395, 231.189 86.514 M 206.374 214.689 C 205.205 214.919, 203.180 216.244, 201.874 217.633 L 199.500 220.160 199.226 276.703 L 198.951 333.246 201.226 332.622 C 202.477 332.280, 205.171 331.719, 207.214 331.377 L 210.929 330.756 211.214 294.789 L 211.500 258.822 213.861 256.911 C 216.908 254.444, 220.479 254.479, 223 257 C 224.926 258.926, 225 260.333, 225 295 L 225 331 269 331 L 313 331 313 309.434 C 313 296.145, 313.407 287.108, 314.061 285.886 C 314.644 284.796, 316.219 283.487, 317.561 282.977 C 319.981 282.057, 320 281.943, 320 268.500 C 320 255.297, 319.941 254.928, 317.709 254.079 C 313.349 252.422, 313.060 251.155, 312.774 232.426 L 312.500 214.500 269 214.500 L 225.500 214.500 225.204 222.472 C 224.864 231.619, 223.480 234, 218.500 234 C 213.318 234, 211.565 231.115, 211.147 221.898 C 210.913 216.737, 210.392 214.047, 209.644 214.136 C 209.015 214.211, 207.543 214.460, 206.374 214.689 M 252.235 240.037 C 249.641 241.079, 247.761 245.152, 248.680 247.741 C 250.498 252.866, 251.070 253, 271.155 253 C 288.667 253, 290.142 252.858, 292 251 C 294.703 248.297, 294.518 244.428, 291.545 241.455 C 289.123 239.032, 288.864 239.001, 271.795 239.063 C 262.283 239.098, 253.481 239.536, 252.235 240.037" stroke="none" fill="#049b8b" fill-rule="evenodd"/><path d="M 251.280 84.736 C 253.909 84.943, 257.959 84.940, 260.280 84.731 C 262.601 84.521, 260.450 84.352, 255.500 84.355 C 250.550 84.358, 248.651 84.530, 251.280 84.736 M 241.762 95.707 C 243.006 95.946, 244.806 95.937, 245.762 95.687 C 246.718 95.437, 245.700 95.241, 243.500 95.252 C 241.300 95.263, 240.518 95.468, 241.762 95.707 M 265.762 95.707 C 267.006 95.946, 268.806 95.937, 269.762 95.687 C 270.718 95.437, 269.700 95.241, 267.500 95.252 C 265.300 95.263, 264.518 95.468, 265.762 95.707 M 327.083 100.373 C 328.112 101.294, 334 103.999, 334 103.551 C 334 102.975, 328.456 100, 327.383 100 C 326.989 100, 326.854 100.168, 327.083 100.373 M 328 112.449 C 328 112.724, 329.350 113.647, 331 114.500 C 332.650 115.353, 334 115.826, 334 115.551 C 334 115.276, 332.650 114.353, 331 113.500 C 329.350 112.647, 328 112.174, 328 112.449 M 358 119.313 C 358 119.485, 359.462 120.948, 361.250 122.563 L 364.500 125.500 361.563 122.250 C 358.825 119.221, 358 118.540, 358 119.313 M 369 129.500 C 370.866 131.425, 372.617 133, 372.892 133 C 373.167 133, 371.866 131.425, 370 129.500 C 368.134 127.575, 366.383 126, 366.108 126 C 365.833 126, 367.134 127.575, 369 129.500 M 149.477 137.250 L 141.500 145.500 149.750 137.523 C 157.412 130.115, 158.456 129, 157.727 129 C 157.576 129, 153.864 132.713, 149.477 137.250 M 361 136.500 C 362.866 138.425, 364.617 140, 364.892 140 C 365.167 140, 363.866 138.425, 362 136.500 C 360.134 134.575, 358.383 133, 358.108 133 C 357.833 133, 359.134 134.575, 361 136.500 M 117.951 162.097 C 116.801 164.350, 116.032 166.365, 116.242 166.575 C 116.451 166.785, 117.602 164.941, 118.798 162.478 C 121.524 156.869, 120.787 156.537, 117.951 162.097 M 392.695 162.487 C 393.610 164.406, 394.536 165.797, 394.753 165.580 C 395.210 165.123, 392.175 159, 391.490 159 C 391.239 159, 391.781 160.569, 392.695 162.487 M 115.995 216.704 C 115.723 223.416, 115.853 228.553, 116.284 228.120 C 116.716 227.686, 116.938 222.194, 116.779 215.916 L 116.490 204.500 115.995 216.704 M 404.796 222.097 C 404.633 231.501, 404.837 239.402, 405.250 239.656 C 405.663 239.910, 406 232.216, 406 222.559 C 406 212.902, 405.796 205, 405.546 205 C 405.296 205, 404.958 212.694, 404.796 222.097 M 211.336 221 C 211.336 225.125, 211.513 226.813, 211.728 224.750 C 211.944 222.688, 211.944 219.313, 211.728 217.250 C 211.513 215.188, 211.336 216.875, 211.336 221 M 398.500 231 C 400.648 233.200, 402.631 235, 402.906 235 C 403.181 235, 401.648 233.200, 399.500 231 C 397.352 228.800, 395.369 227, 395.094 227 C 394.819 227, 396.352 228.800, 398.500 231 M 222.286 231.699 C 221.068 232.965, 220.436 234, 220.881 234 C 221.856 234, 225.494 230.112, 224.911 229.693 C 224.685 229.531, 223.504 230.434, 222.286 231.699 M 262.199 239.744 C 266.984 239.927, 275.084 239.928, 280.199 239.746 C 285.315 239.564, 281.400 239.414, 271.500 239.413 C 261.600 239.412, 257.415 239.561, 262.199 239.744 M 144.458 289.500 C 144.459 313.150, 144.590 322.682, 144.749 310.682 C 144.909 298.683, 144.909 279.333, 144.749 267.682 C 144.589 256.032, 144.458 265.850, 144.458 289.500 M 104.446 289.500 C 104.447 307.100, 104.583 314.159, 104.749 305.187 C 104.914 296.215, 104.914 281.815, 104.748 273.187 C 104.581 264.559, 104.446 271.900, 104.446 289.500 M 211 295.934 L 211 330.867 208.250 331.284 C 205.690 331.671, 205.725 331.711, 208.750 331.850 L 212 332 212 296.500 C 212 276.975, 211.775 261, 211.500 261 C 211.225 261, 211 276.720, 211 295.934 M 421 265.500 C 422.866 267.425, 424.617 269, 424.892 269 C 425.167 269, 423.866 267.425, 422 265.500 C 420.134 263.575, 418.383 262, 418.108 262 C 417.833 262, 419.134 263.575, 421 265.500 M 428.382 289.500 C 428.384 296.100, 428.546 298.670, 428.741 295.211 C 428.937 291.752, 428.936 286.352, 428.738 283.211 C 428.540 280.070, 428.380 282.900, 428.382 289.500 M 420.946 313.750 L 417.500 317.500 421.250 314.054 C 423.313 312.158, 425 310.471, 425 310.304 C 425 309.540, 424.154 310.260, 420.946 313.750 M 246.750 331.749 C 258.988 331.908, 279.013 331.908, 291.250 331.749 C 303.488 331.590, 293.475 331.460, 269 331.460 C 244.525 331.460, 234.513 331.590, 246.750 331.749 M 373.448 386.500 C 373.447 404.650, 373.582 412.216, 373.748 403.314 C 373.913 394.411, 373.914 379.561, 373.749 370.314 C 373.583 361.066, 373.448 368.350, 373.448 386.500 M 252.420 397.500 C 252.419 408.500, 252.565 413.136, 252.745 407.803 C 252.924 402.470, 252.925 393.470, 252.746 387.803 C 252.568 382.136, 252.421 386.500, 252.420 397.500 M 328.569 391.728 C 336.040 394.443, 340.470 398.318, 344.314 405.500 C 345.197 407.150, 345.938 407.988, 345.960 407.363 C 345.982 406.738, 344.538 404.051, 342.750 401.392 C 339.157 396.048, 332.384 391.348, 327 390.462 C 324.209 390.002, 324.526 390.259, 328.569 391.728 M 318.250 403.689 C 319.212 403.941, 320.788 403.941, 321.750 403.689 C 322.712 403.438, 321.925 403.232, 320 403.232 C 318.075 403.232, 317.288 403.438, 318.250 403.689 M 310.106 406.901 C 308.398 408.497, 307 410.397, 307 411.124 C 307 411.850, 307.728 411.406, 308.617 410.137 C 309.506 408.867, 311.643 406.969, 313.367 405.918 C 315.290 404.745, 315.865 404.006, 314.856 404.004 C 313.951 404.002, 311.814 405.306, 310.106 406.901 M 333.232 416 C 333.232 417.925, 333.438 418.712, 333.689 417.750 C 333.941 416.788, 333.941 415.212, 333.689 414.250 C 333.438 413.288, 333.232 414.075, 333.232 416 M 267.032 421.673 C 267.130 424.219, 273.427 429.045, 276.473 428.910 C 277.823 428.850, 277.442 428.513, 275.333 427.903 C 273.591 427.398, 271.004 425.604, 269.583 423.916 C 268.162 422.228, 267.014 421.219, 267.032 421.673 M 348.032 421.673 C 348.130 424.219, 354.427 429.045, 357.473 428.910 C 358.823 428.850, 358.442 428.513, 356.333 427.903 C 354.591 427.398, 352.004 425.604, 350.583 423.916 C 349.162 422.228, 348.014 421.219, 348.032 421.673 M 303.489 427.035 C 302.548 430, 296.568 436.486, 292.401 439.061 C 290.527 440.219, 286.858 441.526, 284.247 441.966 C 280.287 442.632, 280.044 442.784, 282.782 442.882 C 286.693 443.023, 292.158 440.880, 296.674 437.435 C 299.991 434.905, 305.691 426.357, 304.713 425.379 C 304.421 425.088, 303.870 425.833, 303.489 427.035 M 384.489 427.035 C 383.548 430, 377.568 436.486, 373.401 439.061 C 371.527 440.219, 367.858 441.526, 365.247 441.966 C 361.287 442.632, 361.044 442.784, 363.782 442.882 C 367.693 443.023, 373.158 440.880, 377.674 437.435 C 380.991 434.905, 386.691 426.357, 385.713 425.379 C 385.421 425.088, 384.870 425.833, 384.489 427.035" stroke="none" fill="#240d64" fill-rule="evenodd"/></svg>